<svg id="Layer_1" data-name="Layer 1" xmlns="http://www.w3.org/2000/svg" xmlns:xlink="http://www.w3.org/1999/xlink" viewBox="0 0 225.15 252.56">
  <defs>
    <linearGradient id="linear-gradient" x1="71.71" y1="225.5" x2="184.29" y2="30.5" gradientUnits="userSpaceOnUse">
      <stop offset="0" stop-color="#edeeef"/>
      <stop offset="1" stop-color="#c4e9f7"/>
    </linearGradient>
    <linearGradient id="linear-gradient-2" x1="28.29" y1="95.68" x2="221.1" y2="95.68" gradientUnits="userSpaceOnUse">
      <stop offset="0" stop-color="#37beed"/>
      <stop offset="1" stop-color="#0071bc"/>
    </linearGradient>
    <linearGradient id="linear-gradient-3" x1="56.51" y1="94.6" x2="227.71" y2="94.6" gradientUnits="userSpaceOnUse">
      <stop offset="0" stop-color="#29abe2"/>
      <stop offset="1" stop-color="#067db2"/>
    </linearGradient>
    <linearGradient id="linear-gradient-4" x1="46.35" y1="205.03" x2="227.71" y2="205.03" gradientUnits="userSpaceOnUse">
      <stop offset="0" stop-color="#53cbf4"/>
      <stop offset="1" stop-color="#0071bc"/>
    </linearGradient>
    <linearGradient id="linear-gradient-5" x1="69.34" y1="175.18" x2="160.72" y2="16.9" xlink:href="#linear-gradient"/>
    <linearGradient id="linear-gradient-6" x1="28.29" y1="137.31" x2="32.45" y2="137.31" xlink:href="#linear-gradient-2"/>
    <linearGradient id="linear-gradient-7" x1="28.29" y1="81.45" x2="221.1" y2="81.45" xlink:href="#linear-gradient-2"/>
    <linearGradient id="linear-gradient-8" x1="85.72" y1="67.03" x2="225.1" y2="67.03" xlink:href="#linear-gradient-3"/>
  </defs>
  <title>logo</title>
  <path d="M228.57,56.08,140,4.94h0a24,24,0,0,0-24,0l-12,7L30.2,54.47l-2.78,1.6a24,24,0,0,0-12,20.79V179.14a24,24,0,0,0,12,20.8l3.18,1.83,5.19,3h0L116,251.06a24,24,0,0,0,24,0l88.56-51.12a24,24,0,0,0,12-20.8V76.87A24,24,0,0,0,228.57,56.08Z" transform="translate(-15.43 -1.72)" style="fill: url(#linear-gradient)"/>
  <path d="M28.29,91.55v74.61l78.4-140.95L46.54,59.94A36.51,36.51,0,0,0,28.29,91.55Z" transform="translate(-15.43 -1.72)" style="fill: url(#linear-gradient-2)"/>
  <path d="M208,59.1l-67.56-39a2,2,0,0,0-2.81.78L56.77,166.33a2.05,2.05,0,0,0,2,3l167.1-21.13a2.05,2.05,0,0,0,1.79-2V93.24A39.43,39.43,0,0,0,208,59.1Z" transform="translate(-15.43 -1.72)" style="fill: url(#linear-gradient-3)"/>
  <path d="M46.35,196.05l61.49,35.5a40.33,40.33,0,0,0,40.32,0l68.71-39.67a21.67,21.67,0,0,0,10.84-18.78Z" transform="translate(-15.43 -1.72)" style="fill: url(#linear-gradient-4)"/>
  <g>
    <g style="opacity: 0.55">
      <path d="M240.57,76.73q-6.49.94-13,2l-2.5.45-1.26.23-7.66,1.42q-17.85,3.34-35.5,7.17l-3.76.83q-11.5,2.55-22.91,5.36l-4,1q-4.82,1.2-9.6,2.47c-1,.26-2,.52-3,.8-3.21.86-6.43,1.73-9.63,2.64-1.26.34-2.5.7-3.75,1.06l-4.29,1.24-3.61,1.06q-13.27,4-26.33,8.4l-3.52,1.21-.51.18q-18.43,6.42-36.33,14h0c-1.69.72-3.39,1.44-5.07,2.18q-7.23,3.14-14.34,6.5l-1.69.8q-6.48,3.07-12.86,6.35V76.86a24,24,0,0,1,12-20.79l2.78-1.6L103.94,11.9l12-7a24,24,0,0,1,24,0l88.56,51.14A24,24,0,0,1,240.57,76.73Z" transform="translate(-15.43 -1.72)" style="fill: url(#linear-gradient-5)"/>
    </g>
    <path d="M30,136.91l-1.69.8h0Z" transform="translate(-15.43 -1.72)" style="opacity: 0.55;fill: url(#linear-gradient-6)"/>
    <path d="M106.69,25.21l-57.3,103h0c-1.69.72-3.39,1.44-5.07,2.18q-7.23,3.14-14.34,6.5l-1.69.79V91.55A36.51,36.51,0,0,1,46.54,59.94Z" transform="translate(-15.43 -1.72)" style="opacity: 0.55;fill: url(#linear-gradient-7)"/>
    <path d="M225.1,79.17l-1.26.23-7.66,1.42q-17.85,3.34-35.5,7.17l-3.76.83q-11.5,2.55-22.91,5.36l-4,1q-4.82,1.2-9.6,2.47l-3,.8c-3.21.86-6.43,1.73-9.63,2.64L124,102.16l-4.29,1.24-3.61,1.06q-13.27,4-26.33,8.4l-3.52,1.21-.51.18,51.9-93.38a2.06,2.06,0,0,1,2.82-.78L208,59.1A39.48,39.48,0,0,1,225.1,79.17Z" transform="translate(-15.43 -1.72)" style="opacity: 0.55;fill: url(#linear-gradient-8)"/>
  </g>
</svg>
